HIERARCHY
ROOT mixamorig:Hips
{
	OFFSET 0.000000 201.639420 0.000000
	CHANNELS 6 Xposition Yposition Zposition Xrotation Yrotation Zrotation
	JOINT mixamorig:Spine
	{
		OFFSET 0.006200 19.524994 -2.481800
		CHANNELS 3 Xrotation Yrotation Zrotation
		JOINT mixamorig:Spine1
		{
			OFFSET -0.000900 22.835007 -2.825400
			CHANNELS 3 Xrotation Yrotation Zrotation
			JOINT mixamorig:Spine2
			{
				OFFSET -0.020600 26.552490 -3.193300
				CHANNELS 3 Xrotation Yrotation Zrotation
				JOINT mixamorig:Neck
				{
					OFFSET -0.060000 30.701813 1.352200
					CHANNELS 3 Xrotation Yrotation Zrotation
					JOINT mixamorig:Head
					{
						OFFSET -0.087200 22.547607 3.670900
						CHANNELS 3 Xrotation Yrotation Zrotation
						JOINT mixamorig:HeadTop_End
						{
							OFFSET -0.830600 40.355194 7.893500
							CHANNELS 3 Xrotation Yrotation Zrotation
							End Site
							{
								OFFSET 0.000000 30.592346 0.000000
							}
						}
						JOINT mixamorig:RightEye
						{
							OFFSET -6.302100 18.118591 16.197100
							CHANNELS 3 Xrotation Yrotation Zrotation
							End Site
							{
								OFFSET 0.000000 30.592346 0.000000
							}
						}
						JOINT mixamorig:LeftEye
						{
							OFFSET 6.741500 18.382690 16.401899
							CHANNELS 3 Xrotation Yrotation Zrotation
							End Site
							{
								OFFSET 0.000000 30.592346 0.000000
							}
						}
					}
				}
				JOINT mixamorig:LeftShoulder
				{
					OFFSET 11.924900 18.230499 1.425400
					CHANNELS 3 Xrotation Yrotation Zrotation
					JOINT mixamorig:LeftArm
					{
						OFFSET 25.435989 -0.697632 -5.229300
						CHANNELS 3 Xrotation Yrotation Zrotation
						JOINT mixamorig:LeftForeArm
						{
							OFFSET 54.684776 0.000000 0.000000
							CHANNELS 3 Xrotation Yrotation Zrotation
							JOINT mixamorig:LeftHand
							{
								OFFSET 55.098175 0.000000 0.000000
								CHANNELS 3 Xrotation Yrotation Zrotation
								JOINT mixamorig:LeftHandMiddle1
								{
									OFFSET 23.369751 0.000000 0.000000
									CHANNELS 3 Xrotation Yrotation Zrotation
									JOINT mixamorig:LeftHandMiddle2
									{
										OFFSET 6.378677 0.000000 0.000000
										CHANNELS 3 Xrotation Yrotation Zrotation
										JOINT mixamorig:LeftHandMiddle3
										{
											OFFSET 6.148331 0.000000 0.000000
											CHANNELS 3 Xrotation Yrotation Zrotation
											JOINT mixamorig:LeftHandMiddle4
											{
												OFFSET 6.582504 0.000000 0.000000
												CHANNELS 3 Xrotation Yrotation Zrotation
												End Site
												{
													OFFSET -1.168900 6.395691 1.028606
												}
											}
										}
									}
								}
								JOINT mixamorig:LeftHandThumb1
								{
									OFFSET 7.235672 -3.848206 5.434273
									CHANNELS 3 Xrotation Yrotation Zrotation
									JOINT mixamorig:LeftHandThumb2
									{
										OFFSET 6.568451 -3.792297 3.792300
										CHANNELS 3 Xrotation Yrotation Zrotation
										JOINT mixamorig:LeftHandThumb3
										{
											OFFSET 6.063080 -3.500519 3.500518
											CHANNELS 3 Xrotation Yrotation Zrotation
											JOINT mixamorig:LeftHandThumb4
											{
												OFFSET 4.793182 -2.767334 2.767349
												CHANNELS 3 Xrotation Yrotation Zrotation
												End Site
												{
													OFFSET 0.101639 6.054260 1.275483
												}
											}
										}
									}
								}
								JOINT mixamorig:LeftHandIndex1
								{
									OFFSET 23.101074 -0.309540 4.992809
									CHANNELS 3 Xrotation Yrotation Zrotation
									JOINT mixamorig:LeftHandIndex2
									{
										OFFSET 6.226883 0.000000 0.000000
										CHANNELS 3 Xrotation Yrotation Zrotation
										JOINT mixamorig:LeftHandIndex3
										{
											OFFSET 6.094330 0.000000 0.000000
											CHANNELS 3 Xrotation Yrotation Zrotation
											JOINT mixamorig:LeftHandIndex4
											{
												OFFSET 5.482605 0.000000 0.000000
												CHANNELS 3 Xrotation Yrotation Zrotation
												End Site
												{
													OFFSET -1.427902 5.233032 0.797164
												}
											}
										}
									}
								}
								JOINT mixamorig:LeftHandRing1
								{
									OFFSET 22.299240 0.021149 -3.964172
									CHANNELS 3 Xrotation Yrotation Zrotation
									JOINT mixamorig:LeftHandRing2
									{
										OFFSET 6.321869 0.000000 0.000000
										CHANNELS 3 Xrotation Yrotation Zrotation
										JOINT mixamorig:LeftHandRing3
										{
											OFFSET 5.899796 0.000000 0.000000
											CHANNELS 3 Xrotation Yrotation Zrotation
											JOINT mixamorig:LeftHandRing4
											{
												OFFSET 6.517899 0.000000 0.000000
												CHANNELS 3 Xrotation Yrotation Zrotation
												End Site
												{
													OFFSET -1.637299 6.232208 0.980890
												}
											}
										}
									}
								}
								JOINT mixamorig:LeftHandPinky1
								{
									OFFSET 20.463791 -0.302338 -8.562233
									CHANNELS 3 Xrotation Yrotation Zrotation
									JOINT mixamorig:LeftHandPinky2
									{
										OFFSET 6.908646 0.000000 0.000000
										CHANNELS 3 Xrotation Yrotation Zrotation
										JOINT mixamorig:LeftHandPinky3
										{
											OFFSET 4.622849 0.000000 0.000000
											CHANNELS 3 Xrotation Yrotation Zrotation
											JOINT mixamorig:LeftHandPinky4
											{
												OFFSET 5.216080 0.000000 0.000000
												CHANNELS 3 Xrotation Yrotation Zrotation
												End Site
												{
													OFFSET -0.606308 5.116241 0.814926
												}
											}
										}
									}
								}
							}
						}
					}
				}
				JOINT mixamorig:RightShoulder
				{
					OFFSET -12.001300 18.284088 1.348900
					CHANNELS 3 Xrotation Yrotation Zrotation
					JOINT mixamorig:RightArm
					{
						OFFSET -25.308500 -0.751312 -5.164599
						CHANNELS 3 Xrotation Yrotation Zrotation
						JOINT mixamorig:RightForeArm
						{
							OFFSET -54.684429 0.000000 0.000000
							CHANNELS 3 Xrotation Yrotation Zrotation
							JOINT mixamorig:RightHand
							{
								OFFSET -55.150291 0.000000 0.000000
								CHANNELS 3 Xrotation Yrotation Zrotation
								JOINT mixamorig:RightHandMiddle1
								{
									OFFSET -23.317566 0.000000 0.000000
									CHANNELS 3 Xrotation Yrotation Zrotation
									JOINT mixamorig:RightHandMiddle2
									{
										OFFSET -6.378403 0.000000 0.000000
										CHANNELS 3 Xrotation Yrotation Zrotation
										JOINT mixamorig:RightHandMiddle3
										{
											OFFSET -6.148193 0.000000 0.000000
											CHANNELS 3 Xrotation Yrotation Zrotation
											JOINT mixamorig:RightHandMiddle4
											{
												OFFSET -6.583389 0.000000 0.000000
												CHANNELS 3 Xrotation Yrotation Zrotation
												End Site
												{
													OFFSET 1.171692 6.395905 1.029786
												}
											}
										}
									}
								}
								JOINT mixamorig:RightHandThumb1
								{
									OFFSET -7.190521 -3.860474 5.435846
									CHANNELS 3 Xrotation Yrotation Zrotation
									JOINT mixamorig:RightHandThumb2
									{
										OFFSET -6.567429 -3.791718 3.791708
										CHANNELS 3 Xrotation Yrotation Zrotation
										JOINT mixamorig:RightHandThumb3
										{
											OFFSET -6.062469 -3.500153 3.500166
											CHANNELS 3 Xrotation Yrotation Zrotation
											JOINT mixamorig:RightHandThumb4
											{
												OFFSET -4.792618 -2.767029 2.767022
												CHANNELS 3 Xrotation Yrotation Zrotation
												End Site
												{
													OFFSET -0.100327 6.053253 1.276754
												}
											}
										}
									}
								}
								JOINT mixamorig:RightHandIndex1
								{
									OFFSET -23.048981 -0.310791 4.992554
									CHANNELS 3 Xrotation Yrotation Zrotation
									JOINT mixamorig:RightHandIndex2
									{
										OFFSET -6.227539 0.000000 0.000000
										CHANNELS 3 Xrotation Yrotation Zrotation
										JOINT mixamorig:RightHandIndex3
										{
											OFFSET -6.095047 0.000000 0.000000
											CHANNELS 3 Xrotation Yrotation Zrotation
											JOINT mixamorig:RightHandIndex4
											{
												OFFSET -5.484772 0.000000 0.000000
												CHANNELS 3 Xrotation Yrotation Zrotation
												End Site
												{
													OFFSET 1.420593 5.237305 0.797056
												}
											}
										}
									}
								}
								JOINT mixamorig:RightHandRing1
								{
									OFFSET -22.246323 0.020569 -3.963762
									CHANNELS 3 Xrotation Yrotation Zrotation
									JOINT mixamorig:RightHandRing2
									{
										OFFSET -6.322128 0.000000 0.000000
										CHANNELS 3 Xrotation Yrotation Zrotation
										JOINT mixamorig:RightHandRing3
										{
											OFFSET -5.900024 0.000000 0.000000
											CHANNELS 3 Xrotation Yrotation Zrotation
											JOINT mixamorig:RightHandRing4
											{
												OFFSET -6.518356 0.000000 0.000000
												CHANNELS 3 Xrotation Yrotation Zrotation
												End Site
												{
													OFFSET 1.636398 6.232697 0.982186
												}
											}
										}
									}
								}
								JOINT mixamorig:RightHandPinky1
								{
									OFFSET -20.411011 -0.303314 -8.561701
									CHANNELS 3 Xrotation Yrotation Zrotation
									JOINT mixamorig:RightHandPinky2
									{
										OFFSET -6.907349 0.000000 0.000000
										CHANNELS 3 Xrotation Yrotation Zrotation
										JOINT mixamorig:RightHandPinky3
										{
											OFFSET -4.623840 0.000000 0.000000
											CHANNELS 3 Xrotation Yrotation Zrotation
											JOINT mixamorig:RightHandPinky4
											{
												OFFSET -5.218353 0.000000 0.000000
												CHANNELS 3 Xrotation Yrotation Zrotation
												End Site
												{
													OFFSET 0.602097 5.118835 0.816273
												}
											}
										}
									}
								}
							}
						}
					}
				}
			}
		}
	}
	JOINT mixamorig:LeftUpLeg
	{
		OFFSET 18.168400 -13.561905 -0.039000
		CHANNELS 3 Xrotation Yrotation Zrotation
		JOINT mixamorig:LeftLeg
		{
			OFFSET 0.577358 -80.825211 -3.695000
			CHANNELS 3 Xrotation Yrotation Zrotation
			JOINT mixamorig:LeftFoot
			{
				OFFSET -0.577356 -83.370262 -6.520700
				CHANNELS 3 Xrotation Yrotation Zrotation
				JOINT mixamorig:LeftToeBase
				{
					OFFSET 0.750401 -20.798306 25.135401
					CHANNELS 3 Xrotation Yrotation Zrotation
					JOINT mixamorig:LeftToe_End
					{
						OFFSET -0.000500 0.001200 19.917799
						CHANNELS 3 Xrotation Yrotation Zrotation
						End Site
						{
							OFFSET 0.000000 19.917805 0.000000
						}
					}
				}
			}
		}
	}
	JOINT mixamorig:RightUpLeg
	{
		OFFSET -18.162500 -13.585098 -0.041000
		CHANNELS 3 Xrotation Yrotation Zrotation
		JOINT mixamorig:RightLeg
		{
			OFFSET -0.595024 -80.945297 -3.631900
			CHANNELS 3 Xrotation Yrotation Zrotation
			JOINT mixamorig:RightFoot
			{
				OFFSET 0.595024 -83.218193 -6.561200
				CHANNELS 3 Xrotation Yrotation Zrotation
				JOINT mixamorig:RightToeBase
				{
					OFFSET -0.753601 -20.807106 25.115000
					CHANNELS 3 Xrotation Yrotation Zrotation
					JOINT mixamorig:RightToe_End
					{
						OFFSET 0.000299 0.001700 19.918200
						CHANNELS 3 Xrotation Yrotation Zrotation
						End Site
						{
							OFFSET 0.000000 19.918203 0.000000
						}
					}
				}
			}
		}
	}
}
MOTION
Frames: 5
Frame Time: 0.033333
1.411060 27.906769 14.688538 82.073240 -4.124228 -2.564707 5.840467 -1.476711 -0.138799 -4.505672 -5.981538 1.125161 -3.978338 -6.220826 0.289842 -32.792561 -1.693497 16.058680 -6.181620 25.655056 -5.100564 0.000001 0.000001 -0.000001 0.000001 0.000001 -0.000001 0.000001 0.000001 -0.000001 -32.464149 -38.489448 29.683657 -79.250822 -12.366250 -42.888715 0.000029 -47.566749 0.000035 -117.692916 16.518133 25.032391 0.405913 5.507047 -52.453148 3.387150 5.308610 -65.057436 0.282011 1.797450 -17.832379 0.000002 0.000001 0.000002 1.567985 0.456413 2.719341 19.471732 -1.478287 7.637097 -4.536184 -9.613107 1.492974 0.000000 0.000002 -0.000000 -1.882825 2.129432 -39.817025 2.947086 5.081744 -60.200536 0.514397 2.402394 -24.167397 0.000001 0.000001 -0.000002 -0.074367 5.736827 -61.061420 4.422104 5.674472 -75.840406 0.582659 2.548952 -25.748015 -0.000002 -0.000001 -0.000003 2.216813 7.072481 -64.435438 4.422623 5.674617 -75.845747 1.294124 3.673927 -38.798473 0.000000 -0.000003 0.000000 -20.876748 19.499217 15.427032 -54.224663 48.923894 38.187755 0.000089 110.391198 -0.000096 -42.846289 -8.113276 -56.437010 3.413062 -7.186237 51.650246 6.296809 -4.359587 110.634660 0.248726 -1.503055 18.790279 0.000001 -0.000001 -0.000001 8.377126 -4.904127 11.022007 21.620212 -18.183898 -18.379230 -0.702973 -49.821193 -32.535210 -0.000001 0.000001 -0.000001 -1.101425 1.407154 15.159521 1.422370 -3.352164 45.974092 0.615872 -2.316429 29.773109 0.000002 -0.000000 -0.000001 -3.349034 -2.600420 57.010554 5.440890 -4.590889 99.698154 1.689401 -3.590674 50.382224 0.000001 0.000001 -0.000006 -3.996451 -3.303915 64.593843 4.058845 -4.618664 82.610516 2.315555 -4.026785 59.787200 0.000001 -0.000001 0.000001 -12.965528 33.063470 21.289039 22.521490 -9.333004 -9.852725 -10.082974 15.022993 23.427861 8.211284 14.472064 40.213248 -0.000001 -0.000001 -0.000002 -43.280672 -38.439506 -49.752385 30.120875 -2.166970 -1.055562 -4.912332 7.882608 13.972760 14.917884 -2.745386 -10.856009 -0.000000 0.000002 0.000000 
1.377349 27.908859 14.749146 82.008155 -4.168683 -2.837061 5.437927 -1.612091 -0.340369 -4.373507 -5.670358 1.243379 -3.862824 -5.904013 0.453030 -31.839818 -1.693471 15.198272 -7.052234 23.371693 -2.857428 -0.000002 -0.000001 0.000000 -0.000002 -0.000001 0.000000 -0.000002 -0.000001 0.000000 -32.497425 -38.578261 29.616793 -78.985694 -12.088985 -43.517259 0.000030 -47.868032 0.000026 -117.590832 16.178881 24.738423 0.405913 5.507043 -52.453158 3.387155 5.308608 -65.057436 0.282014 1.797451 -17.832379 0.000001 0.000002 -0.000000 1.567990 0.456414 2.719342 19.471729 -1.478280 7.637096 -4.536184 -9.613103 1.492973 0.000001 -0.000000 -0.000001 -1.882826 2.129432 -39.817021 2.947084 5.081742 -60.200529 0.514396 2.402392 -24.167393 -0.000006 -0.000001 -0.000002 0.188291 5.924680 -61.712460 4.349966 5.655883 -75.109698 0.604570 2.593851 -26.236191 -0.000001 -0.000004 0.000002 2.458028 7.202562 -65.194750 4.315098 5.646539 -74.755519 1.282735 3.659750 -38.620386 -0.000001 -0.000001 -0.000000 -19.762949 19.340236 15.195433 -54.655088 48.120920 38.074261 0.000042 111.497565 -0.000042 -41.607538 -8.570548 -54.999921 2.913787 -6.935217 47.758725 6.241783 -4.379869 109.912388 0.362356 -1.802747 22.728515 0.000001 -0.000000 -0.000000 4.482994 -4.796264 12.225681 24.255723 -16.244017 -16.584905 2.970141 -48.374125 -27.574078 0.000003 -0.000000 0.000001 -0.629190 1.207378 10.042380 1.172148 -3.091192 41.524125 0.495772 -2.092756 26.652170 0.000001 -0.000000 0.000000 -3.367804 -2.149840 53.901042 5.380327 -4.600811 98.942537 1.838711 -3.708963 52.727206 -0.000002 -0.000000 -0.000003 -3.984225 -2.852111 61.452858 3.748453 -4.567839 78.735900 2.076646 -3.878194 56.322580 -0.000001 -0.000000 -0.000000 -12.582295 31.776950 20.315450 22.718333 -7.755728 -8.670430 -10.152299 15.235415 22.265397 8.202574 15.398289 42.041686 -0.000001 0.000001 0.000000 -41.106223 -37.557752 -47.699856 29.676366 -2.889999 -0.993326 -4.751828 5.818757 15.258026 -5.166034 -1.293819 6.866734 0.000001 -0.000002 0.000000 
1.355333 28.001770 14.851654 81.923290 -4.305895 -3.086920 5.010561 -1.863305 -0.654736 -4.182598 -5.326631 1.366608 -3.689584 -5.552620 0.623989 -30.960090 -1.707460 14.182171 -7.719200 20.758021 -0.509171 -0.000001 -0.000000 -0.000000 -0.000001 -0.000000 -0.000000 -0.000001 -0.000000 -0.000000 -32.503122 -38.557886 29.610554 -79.120310 -11.951565 -44.281588 0.000002 -47.688241 -0.000023 -117.255305 16.105277 24.329742 0.405914 5.507049 -52.453155 3.387147 5.308616 -65.057429 0.282014 1.797451 -17.832379 -0.000000 0.000000 -0.000001 1.567985 0.456411 2.719338 19.471732 -1.478281 7.637095 -4.536183 -9.613102 1.492976 0.000000 -0.000001 -0.000001 -1.882825 2.129433 -39.817018 2.947087 5.081740 -60.200536 0.514403 2.402395 -24.167397 -0.000001 -0.000001 0.000002 0.188076 5.924571 -61.712405 4.349992 5.655893 -75.110088 0.604585 2.593896 -26.236783 0.000000 0.000001 0.000002 2.457895 7.202518 -65.195119 4.315055 5.646533 -74.755218 1.282744 3.659763 -38.620553 -0.000001 0.000002 0.000002 -18.697528 19.807274 15.433062 -54.691493 46.130889 37.030014 0.000007 113.435618 0.000013 -40.414444 -10.057518 -52.378480 1.870347 -6.117938 40.809455 6.177398 -4.402574 109.071503 0.512366 -2.125491 27.103367 0.000000 -0.000000 -0.000000 -1.281914 0.081324 14.757319 29.349934 -11.972038 -13.650077 11.038112 -46.139728 -18.567507 0.000003 -0.000004 -0.000000 -0.291122 1.396622 5.159321 0.926226 -2.789265 36.732406 0.379477 -1.843109 23.267304 -0.000001 0.000001 0.000000 -3.423839 -1.063834 47.092662 5.199215 -4.625599 96.691102 1.910731 -3.762586 53.832638 0.000001 0.000001 -0.000001 -4.169925 -1.885659 55.914920 3.223422 -4.431441 72.051358 1.671352 -3.575697 50.093297 0.000000 -0.000001 -0.000000 -11.703431 30.474392 19.044343 22.410691 -6.104421 -7.529285 -10.454574 15.271451 21.595624 8.519731 15.764449 42.798788 -0.000000 -0.000002 0.000002 -39.457019 -36.039620 -45.923282 29.751495 -5.808579 -1.056231 -3.646390 3.577155 16.805342 -14.112808 -6.266867 15.828818 -0.000000 0.000001 0.000000 
1.349568 28.091660 15.022079 81.871695 -4.439828 -3.326155 4.354012 -2.312372 -1.073262 -3.855602 -4.981948 1.504252 -3.380998 -5.197807 0.808678 -30.238426 -1.775858 13.083324 -7.885433 17.933309 1.528074 -0.000001 0.000000 0.000000 -0.000001 0.000000 0.000000 -0.000001 0.000000 0.000000 -32.494669 -38.488512 29.633647 -79.499761 -11.948466 -45.136137 0.000027 -47.167473 0.000030 -116.675245 16.188175 23.851623 0.405915 5.507043 -52.453155 3.387151 5.308608 -65.057429 0.282010 1.797449 -17.832383 0.000002 0.000003 0.000001 1.567987 0.456410 2.719339 19.471729 -1.478285 7.637098 -4.536190 -9.613102 1.492976 -0.000001 0.000002 -0.000001 -1.882824 2.129426 -39.817021 2.947088 5.081738 -60.200536 0.514397 2.402393 -24.167390 -0.000001 0.000000 0.000000 0.187807 5.924406 -61.712344 4.350039 5.655910 -75.110559 0.604631 2.593969 -26.237531 0.000001 -0.000002 0.000004 2.457753 7.202460 -65.195522 4.315028 5.646509 -74.754884 1.282756 3.659779 -38.620710 -0.000001 -0.000002 -0.000001 -17.592762 20.385634 15.700137 -54.976828 42.999152 35.988468 0.000021 115.783509 -0.000017 -39.221788 -12.109359 -47.548075 0.548480 -4.387912 29.052363 5.228912 -4.622037 97.059420 0.336883 -1.740672 21.904082 0.000001 0.000000 0.000001 -9.649387 8.985827 19.614222 33.965837 -8.001338 -10.967103 20.668362 -42.733734 -5.358753 -0.000003 -0.000000 0.000001 -1.326813 3.844879 12.035524 0.697187 -2.453028 31.727759 0.310484 -1.673629 21.018881 -0.000001 0.000000 0.000000 -3.001055 1.064732 33.096184 4.314237 -4.644558 85.772389 1.453161 -3.381636 46.498856 -0.000000 0.000001 0.000000 -4.750876 0.226116 46.945482 2.405325 -4.077595 61.057383 1.071149 -2.973421 39.615251 -0.000001 -0.000000 0.000001 -10.520104 29.238735 17.724421 21.696955 -4.916673 -6.496826 -11.386946 15.662006 20.693813 9.108408 15.902745 42.697001 -0.000001 0.000001 -0.000001 -37.931182 -34.526733 -44.258215 29.796372 -7.988822 -1.101131 -2.398990 1.207341 18.214696 -15.347759 -7.237286 17.582181 -0.000000 0.000000 -0.000002 
1.449460 28.087646 15.283997 81.945543 -4.556323 -3.622428 3.275232 -2.920620 -1.536456 -3.380353 -4.667627 1.701831 -2.924386 -4.873312 1.050214 -29.606838 -1.896010 11.998405 -7.629926 15.076977 3.179766 -0.000001 0.000000 -0.000000 -0.000001 0.000000 -0.000000 -0.000001 0.000000 -0.000000 -32.502937 -38.489479 29.620283 -79.805754 -12.085400 -45.843564 0.000000 -46.360227 0.000011 -116.011637 16.332181 23.264451 0.405914 5.507054 -52.453151 3.387153 5.308611 -65.057436 0.282012 1.797450 -17.832379 -0.000001 -0.000001 -0.000002 1.567987 0.456412 2.719340 19.471725 -1.478287 7.637095 -4.536187 -9.613099 1.492973 0.000002 0.000002 -0.000001 -1.882825 2.129435 -39.817021 2.947086 5.081738 -60.200529 0.514401 2.402395 -24.167395 -0.000003 0.000000 -0.000002 0.187530 5.924273 -61.712269 4.350099 5.655924 -75.111064 0.604671 2.594049 -26.238412 -0.000001 0.000001 0.000002 2.457593 7.202396 -65.196007 4.314986 5.646499 -74.754515 1.282768 3.659791 -38.620888 0.000000 -0.000002 0.000001 -16.283472 19.882920 15.305037 -54.998859 39.123795 35.664314 -0.000010 118.137684 0.000005 -37.752307 -12.443155 -40.897178 -0.135904 -2.738914 22.133023 2.575382 -4.166904 63.422869 0.011239 0.324107 -3.981763 0.000002 0.000000 -0.000000 -18.392690 12.430884 24.290215 36.526055 -5.904118 -9.240900 22.617152 -40.820110 -2.043831 -0.000001 0.000001 0.000000 -5.700483 6.833416 29.734262 0.641389 -2.360497 30.399359 0.349859 -1.772561 22.327084 0.000001 -0.000000 -0.000001 -2.523350 2.403332 24.612559 2.633430 -4.195349 64.219194 0.574637 -2.242928 28.737369 0.000001 0.000001 0.000000 -4.064418 1.468976 37.900320 1.847218 -3.715436 52.858680 0.705204 -2.465919 31.914411 -0.000002 -0.000001 0.000001 -9.816451 27.957668 16.826658 21.678230 -4.417244 -5.549772 -12.986999 16.730111 18.839450 9.945262 15.618995 41.336971 -0.000001 -0.000000 0.000002 -36.334407 -33.153718 -42.533398 29.555072 -9.266822 -1.061943 -1.137238 -1.188132 19.536146 -15.906085 -7.264580 17.921148 -0.000003 -0.000002 -0.000001 
